<?xml version="1.0" encoding="UTF-8"?>
<svg id="Layer_1" xmlns="http://www.w3.org/2000/svg" version="1.1" viewBox="0 0 492.21 238.65">
  <!-- Generator: Adobe Illustrator 30.8.1, SVG Export Plug-In . SVG Version: 2.1.4 Build 1)  -->
  <defs>
    <style>
      .st0 {
        fill: #5ddacf;
      }

      .st1 {
        fill: #61d8d1;
      }

      .st2 {
        fill: #fff;
        stroke: #000;
        stroke-miterlimit: 10;
      }

      .st3 {
        fill: #60dcd1;
      }

      .st4 {
        fill: #5edacf;
      }

      .st5 {
        fill: #5ddace;
      }
    </style>
  </defs>
  <path class="st2" d="M244.8,107.68h-41.16s-8.65,64.9-8.65,64.9l-6.54,49.38,27.61-.06,1.85-20.41,13.35.03,1.84,20.41h27.57s-8.23-59.45-8.23-59.45l-7.64-54.79ZM218.67,181.83l3.07-30.53,2.8-23.26,5.77,53.77-11.64.02Z"/>
  <path class="st2" d="M331.11,126.38c-1.4-7.97-6.43-14.09-14.15-16.65-4.02-1.34-8.13-1.99-12.55-2l-37.11-.02v114.18s27.07.02,27.07.02v-46.08s12.51-.09,12.51-.09c9.14-.07,17.93-3.56,21.98-12.04,4.45-9.3,4.09-26.77,2.24-37.33ZM306.91,150.46c-.38,3.35-2.75,5.68-5.86,5.76l-6.67.17.02-29.35c6.33-.43,12.18.05,12.71,6.4.47,5.61.46,11.23-.19,17.03Z"/>
  <path class="st2" d="M40.28,139.95l-.03,47.13c-.59,15.98,4.15,31.45,21.45,35.06,21.81,4.56,42.86-2.89,43.4-27.76l.28-20.02h-25.55c.21,6.76.14,13.54-.03,20.32-.12,5.17-.73,10.99-7.15,10.76-6.11-.22-6.49-6.04-6.76-10.83l.03-60.46c-.7-12.51,14.1-13.61,13.83-.38l.22,18.37c8.51.03,17.01.02,25.51-.04,0,0-.25-7.98-.5-17.37-.17-6.58-2.18-12.02-3.36-14.68-.51-1.14-1.58-2.79-1.95-3.27-3.53-4.5-8.1-7.36-13.69-8.8s-15.64-.89-15.64-.89c-.42,0-2.1.05-2.52.07-17.94,1.12-28.4,14.8-27.54,32.78Z"/>
  <path class="st2" d="M115.97,221.15l25.27.05.24-.25.06-47.26c.13-.57.56-.79,1.12-.86,4.3-.16,8.59-.11,12.84.16l.43.74.1,47.49c8.48.05,16.93,0,25.36-.15l-.09-112.6c-8.54-.14-16.99-.06-25.35.23v40.64s-.33.31-.99.94c-.57.32-12.55.18-13.06-.24-.22-.19-.34-.47-.43-.74l-.11-40.81-25.49-.15.08,112.83Z"/>
  <path class="st3" d="M256.32,52.4c1.24.46,2.54.2,3.42-.89.81-1,.85-2.37.26-3.26-.52-.79-1.68-1.05-2.73-.9-1.41.21-2.33,1.29-2.45,2.33-.16,1.37.6,2.38,1.5,2.71Z"/>
  <path class="st4" d="M75.21,90.41c-1.01-2.24-6,.56-10.11,2.23-6.97,2.83-13.74,5.65-20.94,7.84-6.73,2.04-14.83,2.99-16.51-3.86-.57-2.82-.54-5.71-.02-8.63,1.05-5.98,2.46-11.67,4.17-17.52l26.71-6.98c1.23-.32,1.9-1.17,1.63-2.37-.21-.95-1.38-1.46-2.58-1.17l-22.29,5.35c-.86.21-1.64-.23-1.8-1.04,2.35-7.11,4.97-13.83,8.16-20.65l10.6-22.63c10.65-2.42,21.03-4.15,31.74-5.3,2.33-.25,4.5-.11,6.76.34,1.21-.38,1.48-1.44,1.28-2.37-.99-4.71-30.2,1.72-38.21,2.95-1.9.29-2.71-.07-4.39,1.28-2,1.6-8.66,1.17-7.47,4.35.74,1.98,3.51-.07,5.2.88l-9.83,21.01c-3.52,7.54-6.41,15-8.75,22.99l-2.97,1.12c-1.05.39-1.56,1.11-1.45,2.11.2,1.78,3.19.88,2.77,2.78l-1.24,5.6c-1.46,6.6-4.22,14.28-1.19,21.12,2.8,6.32,10.33,6.58,17.05,5.1,6.02-1.33,11.66-3.22,17.33-5.63l15.39-6.52c1-.42,1.26-1.69.95-2.38Z"/>
  <path class="st5" d="M148,58.37c2.6.16,1.92,9.08-.32,12.92l-10.65,8.19c-4.19,3.84-11.03,10.63-8.68,15.57.93,1.95,3.4,2.01,5.22,1.29,3.23-1.29,5.54-3.61,7.97-6.07,4.58-4.63,7.22-10.42,10.06-16.3,4.24-3.2,9.66-5.25,14.94-7.24-1.54,3.93-3.36,6.92-3.61,10.85-.09,1.42-.07,3.34,1.16,4.25,5.72,4.21,15.65-11.9,21.3-16.25-.15,4.29-2.09,7.83-1.65,12.51.22,2.35,2.2,3.75,4.64,3.49,2.53-.27,5-1.32,6.99-2.91l7.21-5.78-.64,6.16c-.09,5.87,4.43,10.52,10.51,10.36,5.8-.15,11.43-1.97,16.56-4.9,7.21-4.11,13.63-9.15,19.65-14.6l-1.15,5.83c-.61,3.12-.94,6.29-.15,9.33.87,3.35,3.67,5.37,7.12,4.91,6.85-.91,13-8.66,17.99-13.57-.02,5.23,1.31,9.97,5.64,11.16,2.55.7,5.04.35,7.09-1.17,4.76-3.53,6.55-9.76,4.5-15.67,7.11-.85,13.78-2.53,20.04-5.56.86-.42.67-1.83.25-2.27-.48-.49-1.41-.84-2.24-.54-6.53,2.4-15.04,5.53-21.48,4.23-.85-.17-1.74.23-2.11.85-.38.64-.42,1.45.07,2.23l1.88,2.97c1.38,3.75.12,8.07-2.96,10.6-1.22,1-2.92,1.1-4.3.48-5.18-2.29-1.09-16.83,5.76-21.49.84-.2,2.03-.02,2.56-.84.52-.79.42-1.79-.26-2.37-2.21-1.9-6.12.88-8.35,3.78-4.08,5.33-8.11,10.45-12.71,15.37l-6.24,5.59c-1.99,1.78-6.12,3.26-7.72,1.84-3.65-3.23,2.28-19.14,4.56-25.44.36-.99-.73-1.8-1.39-1.88-.79-.1-1.56.08-2,.88l-2.09,3.81c-6.89,6.33-13.97,12.25-21.95,17.17-5.98,3.68-16.7,8.3-21.33,3.91-1.62-1.54-2.14-4.04-1.84-6.3.98-7.32,4.64-13.85,10.05-18.79,1.31-1.2,2.79-1.99,4.57-2.11,1.49-.1,2.65.83,2.88,2.28.74,4.8-3,7.29-1.35,8.61,2.2,1.75,5.01-2.62,4.95-8.3-.03-2.95-1.78-5.26-4.62-5.97-7.54-1.88-12.58,7.03-14.88,9.27l-8.58,8.35c-3.01,2.93-9.89,8.28-10.98,6.15-.46-.9-.29-2.37-.05-3.46,1.82-8.36,4.97-16.1,9.01-23.55.47-.86.25-2.04-.24-2.58-.38-.41-1.44-.92-2.06-.48-2.85,2-5.94,8.29-9.74,11.92-2.75-3.09-6.96-3.69-10.42-1.36-1.69,1.14-3.06,2.5-4.43,4.19-5.87,1.4-11.13,3.79-16.91,6.45.23-3.45.68-6.04.15-8.9-.64-3.49-3.5-5.64-7.06-4.82-12.17,2.79-25.72,29.43-31.52,41.25-1.56,3.19-2.37,6.64-5,9.45,3.21-19.95,8.49-38.87,15.38-57.34l2.19-5c.36-.82.16-1.62-.41-2.13-.46-.41-1.6-.68-2.12,0-.98,1.29-1.75,2.74-2.38,4.26-2.37,5.76-4.36,11.33-6.37,17.43l-24.28,17.35c-.35.25-.83.34-1.09.26-.22-.06-.57-.41-.57-.84-.06-7.68-2.52-13.18-2.67-18.44-.21-6.88,4.96-13.28,9.91-12.04,1.09.27,2.06-.27,2.27-1.19.21-.88-.27-1.73-1.26-2.14-6.04-2.52-15.32,5.02-14.86,15.73.3,6.91,3.93,15.29,2.13,22.92-4.66,4.53-11.87,10.5-12.35,17.04-.19,2.67,1.32,5.71,4.22,5.98,5.91.56,10.14-7.82,11.33-13.91l1.44-7.34c2.76-2.27,5.52-4.09,8.38-6.15l15.45-11.17c-3.47,12.68-6.55,24.29-8.41,36.67l-3.54,23.62c-.19,1.25.88,2.34,1.85,2.47.98.13,2.12-.47,2.41-1.64,4.53-18.52,13.7-38.39,23.96-54.39,3.51-5.47,12.33-17.33,17.74-17ZM138.5,88.17c-1.9,2.14-3.95,4.21-6.8,4.73.55-3.1,2.44-5.28,4.4-7.31,2.72-2.81,5.38-5.62,8.98-7.48-1.4,4.01-3.87,7-6.59,10.06ZM168.25,72.23c1.43-3.44,3.39-6.51,5.83-9.3.98-1.13,2.35-1.95,3.68-2.57,1.84-.85,3.87.05,4.45,2.12-4.28,5.68-8.84,11.07-14.79,15.91-1.08-2.15.06-4.28.83-6.15ZM77.36,103.16c-2.08-2.13,3.3-9.86,7.29-12.57.55,5.71-5.11,14.79-7.29,12.57Z"/>
  <path class="st5" d="M422.86,115.71c-5.45,2.01-11.87,10.46-15.72,15.75l-19.12,26.33-14.99,19.92-17.1-6.25c-2.52-.92-5.11-.73-8.11-.26l2.86-11.96c2.81-11.74,5.23-28.01,2.03-39.29-1.74-6.14-7.35-11.53-12.26-9.78-.95.34-1.05,1.46-.81,2.23.78,2.5,5.35.51,8.09,5.89,3.25,6.4,2.75,17.06,1.75,24.7-3.04,23.09-10.55,45.07-18.45,66.87-1.95,5.37-5.64,15.24-1.36,16.72,3.46,1.19,11.96-6.2,14.93-9.43l14.34-15.61,15.78-19.11,14.71,5.02c3.71,1.27,7.63,1.34,11.43.6,4.14-.94,6.8-4.7,5.67-8.74-.32-1.14-1.54-1.51-2.37-1.22-.95.34-1.23,1.19-1.03,2.31.84,4.65-7.59,5.4-13.63,3.27l-12.3-4.35,9.02-12.27,21.49-29.48c3.99-5.48,7.99-10.59,12.86-15.24,1.23-1.17,3.73-3.9,4.26-2.86s.8,7.31-.43,10.72c-1.21,3.37-5.25,3.51-3.8,5.98,1.29,2.21,5.26-.08,6.99-3.91,1.9-4.21,2.29-9.07,1.05-13.47-.76-2.7-3.24-4-5.77-3.07ZM353.91,201.32l-13.02,13.95c-2.65,2.83-5.69,4.92-9.16,7.03.34-3.33,1.24-6.02,2.36-9.03,4.6-12.39,8.98-24.64,12.36-37.48l3.51-1.05c1.83-.21,3.68-.13,5.41.53l15.12,5.72-16.6,20.33Z"/>
  <path class="st1" d="M469.02,70.91c-.43-4.51-3.64-7.92-8.21-8.48-4.44-.55-8.58,1.35-11.77,4.41-6.72,6.46-9.01,16.29-7.83,25.71,4.7-8.04,12.74-5.61,19.76-8.54,5.4-2.26,8.6-7.31,8.05-13.1ZM448.3,73.37c-1.69,2.75-3.75,6.6-4.28,7.05s.74-3.81,3.12-7.4,6.33-7.6,5.9-6.63c-.43.97-3.04,4.22-4.74,6.97Z"/>
  <path class="st0" d="M449.25,93.31c-7.94,3.43-11.26,13.64-10.09,22.11,4.14-5.54,9.38-3.94,14.71-6.08,5.24-1.92,8.09-8.11,5.38-13.16-1.91-3.56-6.43-4.42-10-2.87ZM444.13,101.77c-1.26,2.23-2.63,5.28-3.18,5.73s.35-3.13,2.14-6.04c1.79-2.91,4.97-6.29,4.62-5.35s-2.32,3.42-3.58,5.66Z"/>
  <path class="st5" d="M432.82,86.48c-1.89-.69-3.73-.42-5.39.55-5.54,3.24-7.47,10.9-6.65,17.45,3-4.33,7.26-3.03,11.37-5.02,3.37-1.63,5.14-5.55,4.15-9.16-.53-1.91-2.08-3.32-3.48-3.83ZM424.47,93.9c-.94,1.91-1.92,4.13-2.37,4.9s.05-2.67,1.4-5.15,3.42-4.74,3.7-4.57-1.8,2.92-2.74,4.83Z"/>
</svg>