<?xml version="1.0" encoding="UTF-8"?>
<svg id="Layer_1" xmlns="http://www.w3.org/2000/svg" version="1.1" viewBox="0 0 873.94 230.4">
  <!-- Generator: Adobe Illustrator 30.8.1, SVG Export Plug-In . SVG Version: 2.1.4 Build 1)  -->
  <defs>
    <style>
      .st0 {
        fill: #5ddacf;
      }

      .st1 {
        fill: #5edacf;
      }

      .st1, .st2, .st3 {
        stroke-miterlimit: 10;
      }

      .st1, .st3 {
        stroke: #5edacf;
      }

      .st4 {
        fill: #61d8d1;
      }

      .st2 {
        fill: #fff;
        stroke: #000;
      }

      .st3, .st5 {
        fill: #5ddace;
      }
    </style>
  </defs>
  <g>
    <path class="st2" d="M611.55,64.17h-44.34s-9.32,69.91-9.32,69.91l-7.05,53.19,29.74-.07,1.99-21.99,14.38.03,1.98,21.99h29.71s-8.86-64.05-8.86-64.05l-8.24-59.02ZM583.4,144.05l3.31-32.89,3.01-25.05,6.21,57.92-12.54.02Z"/>
    <path class="st2" d="M704.54,84.32c-1.51-8.59-6.93-15.18-15.24-17.93-4.34-1.45-8.76-2.15-13.52-2.15l-39.97-.02v123.01s29.16.02,29.16.02v-49.64s13.48-.1,13.48-.1c9.85-.07,19.32-3.84,23.68-12.98,4.79-10.02,4.41-28.84,2.41-40.22ZM678.47,110.27c-.41,3.61-2.96,6.12-6.32,6.2l-7.19.18.02-31.62c6.82-.46,13.12.06,13.7,6.9.51,6.05.5,12.1-.21,18.34Z"/>
    <path class="st2" d="M391.22,98.94l-.03,50.77c-.64,17.22,4.48,33.88,23.11,37.77,23.5,4.92,46.18-3.12,46.76-29.9l.3-21.57h-27.53c.23,7.29.15,14.59-.03,21.89-.13,5.56-.78,11.84-7.71,11.59-6.58-.24-6.99-6.51-7.28-11.66l.03-65.13c-.76-13.47,15.19-14.66,14.9-.41l.24,19.8c9.17.04,18.33.02,27.49-.04,0,0-.27-8.59-.54-18.71-.19-7.09-2.35-12.95-3.62-15.82-.54-1.23-1.7-3.01-2.1-3.53-3.81-4.85-8.72-7.92-14.75-9.48s-16.85-.96-16.85-.96c-.45,0-2.26.05-2.71.08-19.33,1.2-30.59,15.95-29.67,35.31Z"/>
    <path class="st2" d="M472.76,186.42l27.22.05.26-.27.07-50.92c.14-.61.6-.85,1.21-.93,4.64-.17,9.25-.12,13.84.17l.47.8.11,51.16c9.13.06,18.24,0,27.32-.16l-.1-121.31c-9.2-.15-18.31-.07-27.31.25v43.78s-.36.34-1.06,1.01c-.61.35-13.53.2-14.07-.26-.24-.2-.36-.51-.47-.8l-.12-43.97-27.46-.16.08,121.56Z"/>
  </g>
  <g>
    <path class="st1" d="M333.13,109.21c1.67.61,3.4.27,4.58-1.19,1.09-1.34,1.13-3.18.35-4.36-.7-1.06-2.25-1.4-3.66-1.2-1.9.28-3.12,1.72-3.28,3.12-.21,1.83.8,3.19,2.01,3.63Z"/>
    <path class="st1" d="M90.52,160.13c-1.35-3-8.04.75-13.54,2.99-9.34,3.79-18.4,7.57-28.05,10.5-9.01,2.73-19.86,4-22.12-5.17-.76-3.78-.72-7.65-.03-11.55,1.41-8.01,3.3-15.63,5.59-23.47l35.77-9.35c1.65-.43,2.55-1.57,2.18-3.18-.29-1.27-1.85-1.95-3.45-1.57l-29.86,7.16c-1.15.28-2.2-.31-2.42-1.4,3.14-9.53,6.66-18.53,10.93-27.66l14.19-30.31c14.27-3.25,28.17-5.56,42.51-7.1,3.13-.33,6.03-.15,9.06.46,1.62-.51,1.98-1.93,1.71-3.18-1.33-6.31-40.46,2.31-51.18,3.95-2.55.39-3.64-.09-5.88,1.71-2.68,2.15-11.61,1.56-10.01,5.83.99,2.65,4.7-.09,6.97,1.18l-13.16,28.15c-4.72,10.09-8.59,20.1-11.72,30.8l-3.97,1.5c-1.4.53-2.09,1.48-1.94,2.83.27,2.39,4.27,1.18,3.71,3.72l-1.66,7.5c-1.95,8.83-5.65,19.13-1.59,28.29,3.76,8.47,13.84,8.81,22.84,6.83,8.07-1.78,15.61-4.31,23.22-7.54l20.61-8.74c1.33-.57,1.69-2.27,1.27-3.18Z"/>
    <path class="st1" d="M188.04,117.21c3.49.21,2.57,12.17-.43,17.31l-14.27,10.97c-5.61,5.15-14.78,14.24-11.63,20.86,1.25,2.62,4.56,2.7,6.99,1.73,4.33-1.72,7.42-4.83,10.68-8.13,6.14-6.21,9.67-13.96,13.47-21.83,5.67-4.29,12.94-7.03,20.01-9.7-2.07,5.26-4.5,9.27-4.83,14.54-.12,1.9-.1,4.48,1.56,5.69,7.66,5.64,20.96-15.93,28.54-21.76-.2,5.74-2.8,10.49-2.21,16.76.29,3.15,2.94,5.03,6.22,4.68,3.39-.36,6.7-1.77,9.36-3.9l9.65-7.74-.86,8.25c-.12,7.87,5.93,14.09,14.07,13.87,7.77-.21,15.31-2.64,22.19-6.57,9.65-5.51,18.25-12.25,26.32-19.56l-1.54,7.81c-.82,4.18-1.26,8.42-.2,12.5,1.17,4.49,4.91,7.19,9.54,6.58,9.18-1.21,17.41-11.61,24.1-18.18-.03,7,1.76,13.35,7.56,14.94,3.41.94,6.75.47,9.5-1.57,6.38-4.73,8.78-13.07,6.03-20.98,9.53-1.14,18.45-3.39,26.85-7.45,1.16-.56.9-2.46.33-3.04-.64-.66-1.89-1.13-3-.72-8.75,3.22-20.14,7.4-28.77,5.66-1.14-.23-2.33.31-2.83,1.14-.51.85-.56,1.94.1,2.98l2.52,3.98c1.85,5.02.16,10.81-3.96,14.2-1.63,1.34-3.92,1.47-5.77.65-6.93-3.07-1.47-22.55,7.71-28.79,1.12-.27,2.72-.03,3.43-1.12.69-1.06.57-2.39-.35-3.18-2.96-2.54-8.2,1.18-11.18,5.07-5.46,7.14-10.86,14-17.02,20.58l-8.36,7.48c-2.67,2.39-8.19,4.37-10.34,2.47-4.88-4.33,3.05-25.63,6.1-34.07.48-1.32-.97-2.41-1.86-2.52-1.06-.13-2.09.11-2.68,1.18l-2.8,5.1c-9.23,8.48-18.71,16.41-29.4,22.99-8.01,4.93-22.37,11.12-28.57,5.24-2.17-2.06-2.87-5.42-2.46-8.44,1.32-9.81,6.21-18.55,13.46-25.17,1.76-1.6,3.74-2.66,6.13-2.82,2-.14,3.55,1.11,3.85,3.06,1,6.43-4.02,9.77-1.81,11.53,2.95,2.34,6.71-3.5,6.63-11.12-.04-3.95-2.39-7.05-6.19-7.99-10.1-2.51-16.85,9.42-19.93,12.41l-11.49,11.19c-4.03,3.92-13.25,11.1-14.71,8.24-.62-1.21-.39-3.18-.07-4.63,2.43-11.2,6.66-21.56,12.07-31.54.63-1.16.33-2.74-.33-3.46-.5-.55-1.93-1.23-2.76-.65-3.81,2.68-7.95,11.1-13.04,15.96-3.68-4.14-9.33-4.94-13.95-1.82-2.27,1.53-4.1,3.35-5.93,5.62-7.86,1.88-14.91,5.08-22.65,8.64.31-4.62.9-8.1.2-11.92-.86-4.67-4.69-7.55-9.46-6.46-16.31,3.73-34.46,39.42-42.22,55.26-2.1,4.28-3.18,8.89-6.7,12.66,4.3-26.73,11.37-52.07,20.61-76.81l2.93-6.69c.48-1.1.22-2.17-.55-2.86-.62-.56-2.15-.91-2.84,0-1.31,1.72-2.35,3.68-3.19,5.71-3.18,7.71-5.84,15.18-8.53,23.35l-32.52,23.24c-.48.34-1.12.45-1.46.35-.29-.09-.76-.55-.76-1.12-.09-10.28-3.37-17.65-3.58-24.7-.28-9.21,6.65-17.8,13.27-16.13,1.47.37,2.75-.37,3.05-1.6.28-1.18-.36-2.31-1.68-2.87-8.09-3.38-20.51,6.72-19.9,21.07.4,9.26,5.26,20.48,2.85,30.7-6.24,6.07-15.9,14.07-16.54,22.82-.26,3.57,1.77,7.64,5.65,8.01,7.91.74,13.58-10.48,15.18-18.63l1.93-9.83c3.7-3.03,7.4-5.48,11.22-8.24l20.69-14.97c-4.64,16.98-8.77,32.54-11.26,49.12l-4.75,31.64c-.25,1.67,1.18,3.13,2.48,3.3,1.32.18,2.84-.63,3.22-2.2,6.06-24.81,18.35-51.42,32.09-72.86,4.7-7.33,16.52-23.21,23.76-22.77ZM175.31,157.13c-2.55,2.87-5.29,5.64-9.1,6.34.73-4.15,3.27-7.08,5.9-9.8,3.65-3.77,7.21-7.53,12.04-10.02-1.88,5.38-5.19,9.37-8.83,13.48ZM215.16,135.78c1.91-4.6,4.55-8.72,7.81-12.46,1.32-1.51,3.14-2.62,4.93-3.44,2.46-1.14,5.18.06,5.96,2.84-5.73,7.61-11.85,14.82-19.81,21.31-1.44-2.88.07-5.73,1.12-8.24ZM93.41,177.21c-2.78-2.85,4.42-13.2,9.76-16.83.74,7.65-6.85,19.82-9.76,16.83Z"/>
  </g>
  <path class="st3" d="M803.38,72.83c-5.88,2.17-12.79,11.27-16.93,16.96l-20.6,28.36-16.15,21.46-18.42-6.73c-2.72-.99-5.5-.78-8.74-.28l3.08-12.88c3.02-12.65,5.63-30.17,2.19-42.33-1.87-6.61-7.92-12.42-13.21-10.54-1.03.37-1.13,1.57-.87,2.4.84,2.7,5.77.55,8.71,6.35,3.5,6.9,2.97,18.38,1.88,26.61-3.28,24.87-11.36,48.56-19.88,72.04-2.1,5.78-6.08,16.42-1.47,18.01,3.73,1.29,12.88-6.68,16.08-10.16l15.45-16.82,17-20.58,15.85,5.4c4,1.36,8.22,1.44,12.31.65,4.46-1.01,7.33-5.06,6.11-9.42-.34-1.23-1.66-1.63-2.56-1.31-1.03.36-1.33,1.28-1.11,2.49.91,5.01-8.17,5.82-14.68,3.52l-13.25-4.69,9.72-13.22,23.15-31.76c4.3-5.9,8.61-11.41,13.85-16.41,1.32-1.26,4.02-4.2,4.59-3.08s.86,7.87-.46,11.55c-1.3,3.63-5.65,3.78-4.09,6.45,1.39,2.38,5.66-.09,7.53-4.22,2.05-4.54,2.47-9.77,1.13-14.51-.82-2.91-3.49-4.31-6.21-3.31ZM729.1,165.06l-14.02,15.03c-2.85,3.05-6.13,5.3-9.87,7.57.36-3.59,1.34-6.49,2.54-9.72,4.95-13.35,9.68-26.54,13.32-40.37l3.78-1.13c1.98-.22,3.96-.14,5.83.57l16.29,6.16-17.88,21.9Z"/>
  <path class="st4" d="M853.12,24.57c-.46-4.86-3.93-8.53-8.84-9.13-4.79-.59-9.25,1.45-12.68,4.75-7.24,6.95-9.71,17.55-8.44,27.7,5.06-8.67,13.73-6.04,21.29-9.21,5.81-2.43,9.27-7.88,8.67-14.11ZM830.79,27.22c-1.82,2.96-4.04,7.11-4.62,7.6s.8-4.1,3.36-7.97c2.56-3.87,6.82-8.18,6.36-7.14-.47,1.04-3.28,4.55-5.1,7.51Z"/>
  <path class="st0" d="M831.82,48.69c-8.56,3.7-12.13,14.7-10.87,23.82,4.46-5.96,10.1-4.25,15.85-6.55,5.65-2.07,8.71-8.73,5.79-14.18-2.05-3.83-6.93-4.76-10.78-3.1ZM826.3,57.81c-1.36,2.41-2.83,5.69-3.43,6.18s.38-3.37,2.3-6.51c1.92-3.14,5.35-6.78,4.98-5.76s-2.5,3.69-3.86,6.09Z"/>
  <path class="st5" d="M814.11,41.33c-2.04-.74-4.02-.45-5.81.6-5.97,3.49-8.05,11.74-7.16,18.8,3.24-4.67,7.82-3.26,12.25-5.41,3.63-1.75,5.54-5.98,4.47-9.86-.57-2.06-2.24-3.57-3.75-4.12ZM805.12,49.33c-1.01,2.06-2.07,4.44-2.55,5.27s.05-2.87,1.51-5.55,3.68-5.11,3.99-4.93-1.94,3.15-2.95,5.2Z"/>
</svg>
